<?xml version="1.0" standalone="no"?>
<!DOCTYPE svg PUBLIC "-//W3C//DTD SVG 20010904//EN"
 "http://www.w3.org/TR/2001/REC-SVG-20010904/DTD/svg10.dtd">
<svg version="1.0" xmlns="http://www.w3.org/2000/svg"
 width="1050.000000pt" height="1050.000000pt" viewBox="0 0 1050.000000 1050.000000"
 preserveAspectRatio="xMidYMid meet">

<g transform="translate(0.000000,1050.000000) scale(0.100000,-0.100000)"
fill="#AA8C96" stroke="none">
<path d="M2507 9618 c-36 -28 -37 -60 -7 -184 15 -66 27 -120 26 -121 -1 -2
-556 -153 -561 -153 -1 0 -8 -13 -15 -29 -14 -36 0 -68 33 -76 12 -3 140 28
286 70 146 41 267 72 270 69 9 -9 59 -254 52 -258 -3 -2 -211 -56 -461 -121
-250 -65 -463 -125 -472 -133 -24 -21 -22 -56 5 -87 l22 -27 459 132 c253 72
462 127 466 123 7 -8 130 -606 130 -630 0 -7 -6 -13 -12 -13 -30 0 -136 -60
-165 -94 -39 -44 -47 -72 -40 -139 l5 -52 -81 -45 c-175 -97 -401 -257 -567
-399 -499 -427 -897 -1046 -1045 -1626 -57 -224 -70 -326 -70 -555 1 -192 3
-215 33 -359 146 -694 576 -1355 1133 -1743 447 -312 1078 -498 1694 -498
l171 0 17 68 c35 134 137 297 286 454 164 173 405 297 665 343 103 18 324 20
429 4 126 -19 309 -70 392 -109 226 -108 433 -352 560 -662 l35 -83 127 2
c213 3 717 76 953 139 127 33 298 102 449 180 l123 64 29 -21 c29 -20 42 -21
582 -25 304 -3 580 -7 615 -10 59 -5 62 -7 62 -32 0 -94 51 -152 132 -152 63
0 106 25 135 78 35 62 39 112 13 191 -21 67 -21 69 -4 102 27 50 25 190 -3
244 -27 51 -67 89 -118 112 -37 16 -72 18 -439 14 l-400 -3 50 58 c150 175
317 431 424 649 116 237 161 404 207 775 26 210 26 917 0 1100 -84 588 -239
974 -546 1358 -335 420 -830 734 -1341 850 -74 17 -176 37 -226 43 l-91 12 23
35 c51 74 41 156 -26 216 l-40 36 -497 0 c-273 0 -494 2 -492 4 2 3 235 70
518 150 539 152 572 165 612 230 32 52 6 74 -96 82 -55 5 -129 -14 -883 -219
-659 -180 -829 -230 -849 -248 -58 -55 -77 -135 -49 -204 l14 -33 -71 -6 c-40
-3 -171 -8 -292 -11 -525 -12 -1162 -119 -1600 -268 l-70 -24 -24 30 c-34 41
-95 67 -162 67 l-56 0 -63 298 c-34 163 -63 301 -64 305 -1 5 190 68 423 141
375 117 425 135 433 156 12 32 1 59 -26 66 -13 3 -196 -39 -435 -100 -227 -58
-416 -106 -420 -106 -8 0 -56 219 -49 225 2 2 105 32 228 66 124 34 233 66
243 71 27 14 19 66 -14 90 l-26 19 -233 -60 c-129 -33 -235 -59 -236 -58 -1 1
-12 54 -23 117 -16 89 -26 119 -42 133 -25 20 -39 21 -62 5z m5754 -2704 c210
-63 393 -238 587 -564 l62 -105 0 -435 0 -435 -46 -80 c-137 -240 -332 -443
-518 -537 -55 -28 -70 -31 -153 -31 -83 -1 -97 2 -156 31 -72 36 -108 76 -141
156 -21 50 -21 66 -26 841 -4 576 -2 806 7 850 48 252 190 366 384 309z
m-1407 -384 c219 -56 376 -198 454 -412 l27 -73 3 -754 c2 -729 2 -757 -18
-834 -77 -306 -314 -499 -615 -501 -109 0 -191 20 -302 74 -137 67 -239 177
-309 330 l-29 65 -6 320 c-11 553 -10 1252 2 1303 6 26 32 90 56 142 38 78 60
109 122 171 159 159 398 225 615 169z m-2274 -319 l525 -6 13 -50 c27 -106 37
-260 23 -367 -37 -299 -178 -529 -429 -700 -95 -64 -185 -104 -301 -134 l-94
-24 -771 0 c-836 0 -865 2 -1038 56 -372 117 -611 394 -673 779 -27 162 -18
292 25 408 l22 57 1086 -6 c598 -4 1323 -9 1612 -13z m2757 -2671 c81 -49 84
-177 5 -235 -26 -19 -45 -20 -562 -23 -611 -3 -586 -6 -628 80 -31 62 -23 109
28 161 l38 37 543 0 c522 0 545 -1 576 -20z"/>
<path d="M4795 3434 c-235 -41 -450 -157 -616 -331 -216 -227 -322 -513 -306
-831 25 -521 420 -959 939 -1042 108 -18 340 -8 444 19 331 83 621 329 754
639 58 135 81 237 87 393 9 222 -23 374 -118 560 -60 117 -107 181 -206 282
-253 255 -624 373 -978 311z m391 -548 c216 -83 364 -296 366 -526 1 -168 -52
-300 -167 -415 -117 -117 -241 -169 -405 -169 -322 0 -575 252 -574 574 1 253
148 459 389 543 74 25 90 27 200 24 101 -3 131 -8 191 -31z"/>
</g>
</svg>
