<?xml version="1.0" standalone="no"?>
<!DOCTYPE svg PUBLIC "-//W3C//DTD SVG 20010904//EN"
 "http://www.w3.org/TR/2001/REC-SVG-20010904/DTD/svg10.dtd">
<svg version="1.0" xmlns="http://www.w3.org/2000/svg"
 width="500.000000pt" height="500.000000pt" viewBox="0 0 500.000000 500.000000"
 preserveAspectRatio="xMidYMid meet">

<g transform="translate(0.000000,500.000000) scale(0.100000,-0.100000)"
fill="cyan" stroke="none">
<path d="M1930 4708 c-151 -12 -233 -28 -298 -59 -106 -52 -118 -105 -31 -149
23 -12 73 -51 111 -86 37 -36 83 -71 100 -78 29 -13 37 -11 112 25 96 46 255
88 340 91 66 1 89 -8 164 -64 l44 -33 191 -6 c106 -4 194 -7 195 -8 2 0 34
-29 70 -64 44 -42 81 -67 107 -75 54 -15 78 -42 175 -197 69 -109 81 -134 76
-160 -20 -105 -20 -104 10 -136 16 -17 58 -51 94 -76 36 -25 80 -60 97 -76
l33 -30 16 38 c56 135 31 316 -72 505 -64 117 -149 189 -379 322 -71 42 -184
108 -249 147 -190 113 -302 150 -526 171 -116 11 -224 11 -380 -2z"/>
<path d="M2093 4370 c-39 -10 -95 -29 -124 -42 l-54 -22 44 -8 c24 -4 58 -18
76 -32 18 -14 74 -37 126 -51 173 -48 186 -53 208 -90 32 -56 147 -122 260
-152 54 -14 107 -33 120 -42 12 -9 33 -48 47 -86 14 -39 37 -85 51 -104 l26
-34 -44 7 c-24 4 -62 10 -84 14 -77 12 -308 5 -410 -13 -55 -9 -154 -35 -219
-56 -200 -65 -337 -150 -474 -293 -89 -93 -147 -176 -210 -302 -45 -89 -116
-284 -104 -284 15 0 127 71 155 98 40 37 73 97 102 181 13 40 34 88 45 107 51
81 162 151 365 229 61 24 127 59 170 89 65 48 73 51 125 49 283 -10 288 -10
403 31 145 51 174 49 284 -27 104 -71 147 -85 216 -70 29 6 60 14 69 18 35 14
184 -328 240 -550 33 -130 33 -130 31 -360 -2 -250 -15 -370 -56 -490 -163
-478 -709 -847 -1105 -747 -210 53 -473 238 -555 390 -57 104 -72 262 -38 394
37 143 110 257 248 388 162 153 298 213 488 212 273 0 464 -113 525 -310 65
-209 -24 -428 -228 -562 -95 -62 -180 -90 -276 -90 -151 0 -273 52 -323 137
-23 40 -25 48 -14 82 32 107 178 217 389 291 l107 38 -40 11 c-57 16 -101 14
-187 -8 -209 -54 -375 -195 -386 -327 -11 -130 92 -270 233 -319 80 -27 220
-23 324 10 251 80 454 223 527 371 21 44 25 65 25 150 0 108 -9 161 -42 251
-72 192 -244 344 -454 398 -78 20 -263 20 -363 -1 -224 -46 -408 -165 -553
-357 -196 -259 -208 -477 -44 -812 114 -232 317 -383 600 -446 100 -22 323
-17 425 10 441 117 806 563 900 1099 12 64 39 176 62 247 35 112 41 143 42
225 1 112 -15 160 -96 291 -28 46 -76 133 -107 193 l-56 108 -92 57 c-66 40
-90 60 -86 71 23 58 4 113 -43 124 -13 4 -38 25 -54 47 -27 38 -29 46 -23 100
7 67 -13 132 -50 167 -12 11 -58 37 -101 57 -106 48 -151 86 -186 155 -16 32
-38 61 -47 64 -57 16 -96 17 -201 5 -64 -7 -134 -9 -155 -5 -40 8 -107 59
-107 82 0 8 -11 26 -25 39 -21 22 -33 25 -97 24 -40 0 -105 -9 -145 -19z"/>
<path d="M4415 3801 c-48 -22 -120 -95 -110 -110 14 -24 90 -54 135 -53 62 0
150 35 202 81 l43 39 -65 31 c-77 36 -144 40 -205 12z m103 -68 c2 -8 -6 -13
-22 -13 -25 0 -33 10 -19 24 10 10 36 3 41 -11z"/>
<path d="M4665 3686 c-93 -74 -155 -97 -275 -103 -77 -4 -112 -1 -182 16 -81
21 -89 21 -112 6 -14 -9 -40 -47 -59 -84 l-34 -66 56 -114 56 -114 74 -41 c52
-29 87 -57 115 -92 23 -29 50 -57 61 -62 36 -19 108 -21 137 -4 l27 16 -6 125
c-5 102 -3 137 11 186 38 132 120 195 291 222 48 8 50 10 53 42 7 69 -26 107
-101 117 -39 5 -47 1 -112 -50z"/>
<path d="M4723 3504 c-84 -41 -115 -95 -106 -185 5 -52 21 -119 29 -119 21 0
150 104 166 134 9 16 25 106 31 171 3 32 -57 31 -120 -1z m25 -97 c2 -10 -3
-17 -12 -17 -18 0 -29 16 -21 31 9 14 29 6 33 -14z"/>
<path d="M2705 3493 c-11 -2 -69 -20 -130 -40 -101 -32 -115 -34 -180 -27
-130 15 -153 9 -285 -68 -63 -37 -134 -68 -210 -92 -172 -53 -194 -73 -265
-241 -16 -38 -44 -97 -63 -130 -61 -109 -104 -234 -125 -365 -5 -30 -4 -32 6
-17 159 244 214 314 346 440 151 143 310 239 486 293 81 25 105 28 235 27 175
0 255 -18 405 -93 223 -110 402 -303 514 -553 17 -37 32 -67 34 -67 8 0 -4
167 -19 265 -29 183 -88 328 -170 415 -50 54 -103 79 -217 106 -67 15 -85 25
-140 72 -89 77 -140 94 -222 75z"/>
<path d="M3838 3364 c-65 -30 -83 -34 -160 -34 -49 0 -88 -4 -88 -8 0 -16 63
-97 142 -181 92 -99 124 -159 138 -261 7 -51 23 -102 50 -158 31 -66 40 -96
40 -137 0 -42 5 -60 24 -81 20 -24 32 -28 89 -32 78 -5 78 -4 74 119 l-2 75
75 99 c41 54 83 108 93 121 19 24 17 39 -14 122 -5 12 -47 47 -93 77 -106 69
-139 102 -175 174 -16 31 -50 74 -75 97 l-46 41 -72 -33z"/>
<path d="M2480 3194 c-213 -25 -430 -123 -603 -270 -101 -86 -258 -267 -340
-389 -72 -110 -159 -287 -267 -545 -99 -237 -107 -260 -115 -333 -8 -72 -44
-122 -140 -194 -75 -57 -88 -73 -79 -97 10 -26 44 -28 140 -12 49 9 105 16
124 16 64 -1 188 -76 164 -100 -6 -6 -49 -15 -95 -19 -101 -9 -137 -26 -166
-78 -17 -30 -43 -158 -43 -210 0 -14 346 82 446 123 l39 16 -50 -52 c-94 -97
-297 -217 -510 -300 -33 -13 -61 -24 -62 -25 -2 -1 -7 -26 -13 -55 -6 -30 -19
-69 -30 -87 -11 -18 -16 -33 -12 -33 4 0 88 40 187 88 177 87 330 176 433 253
28 22 52 34 52 27 0 -27 -62 -142 -106 -199 -83 -105 -167 -157 -374 -233
-165 -61 -240 -96 -240 -113 0 -30 31 -71 61 -82 43 -15 76 -14 140 5 189 55
465 260 729 542 l95 101 100 -40 c247 -100 523 -159 740 -159 189 0 336 30
544 112 237 93 348 164 492 316 140 147 234 301 304 496 l32 89 26 -44 c55
-94 69 -147 68 -254 -1 -63 4 -120 14 -150 22 -76 22 -306 0 -436 -13 -78 -15
-117 -8 -145 11 -47 26 -47 90 -3 73 50 97 108 79 187 -12 53 -1 78 79 182
135 178 145 243 57 396 -58 100 -63 134 -38 250 13 60 13 69 1 134 -15 79 -95
181 -221 281 l-54 44 0 109 c0 103 -1 108 -17 94 -10 -8 -47 -31 -83 -51 -141
-77 -158 -136 -82 -286 73 -146 56 -194 -84 -236 -92 -29 -153 -74 -155 -116
-4 -54 4 -108 23 -173 13 -45 17 -82 13 -105 -16 -97 -45 -116 -193 -135 l-96
-12 -51 -60 c-200 -236 -276 -265 -591 -230 -182 21 -253 15 -354 -26 -72 -30
-81 -32 -220 -32 -140 -1 -147 0 -201 27 -44 23 -71 29 -135 31 -136 6 -182
40 -285 211 -151 251 -216 408 -226 550 -8 107 7 181 62 316 111 272 219 444
375 599 265 263 434 340 690 311 373 -42 644 -239 716 -523 22 -85 22 -254 -1
-338 -47 -179 -204 -351 -407 -444 -287 -132 -539 -135 -726 -7 -87 58 -156
150 -176 233 -15 65 41 210 120 312 78 98 219 194 343 230 144 42 347 -3 381
-84 17 -41 6 -74 -42 -126 -47 -51 -132 -96 -293 -155 l-110 -40 105 5 c232
11 406 90 466 213 42 85 20 167 -67 255 -128 128 -325 153 -529 68 -193 -81
-421 -306 -475 -470 -36 -109 -13 -263 55 -369 108 -169 348 -277 592 -265
138 6 267 42 434 119 232 108 375 257 440 460 32 99 44 292 25 412 -54 337
-299 610 -631 702 -70 20 -216 32 -280 25z"/>
<path d="M1281 2683 c-5 -21 -15 -68 -21 -105 -10 -57 -17 -72 -46 -98 -19
-16 -46 -33 -61 -36 -15 -4 -124 7 -247 25 -353 52 -417 61 -481 61 -154 0
-291 -43 -320 -100 -26 -50 -11 -163 25 -185 5 -3 56 5 112 19 258 65 491 74
668 26 23 -6 40 -13 38 -16 -3 -2 -42 -11 -89 -20 -130 -24 -352 -80 -477
-119 l-113 -36 22 -37 c12 -20 35 -50 50 -66 l28 -30 108 51 c153 73 212 87
368 87 72 1 148 -3 170 -7 39 -9 39 -9 -70 -37 -136 -35 -181 -50 -318 -107
l-108 -45 30 -22 c16 -11 50 -39 76 -60 53 -45 95 -56 175 -43 56 8 81 21 144
71 21 17 66 37 109 48 134 35 183 97 257 323 53 164 69 242 63 327 -4 56 -32
125 -63 153 -18 16 -19 16 -29 -22z"/>
<path d="M3831 2698 c-76 -454 -185 -763 -359 -1023 -249 -372 -536 -536 -936
-536 -414 0 -725 171 -884 486 -47 95 -67 157 -92 285 l-17 95 -24 -50 c-31
-68 -38 -205 -15 -308 29 -129 110 -276 207 -375 63 -64 82 -75 190 -102 56
-14 116 -40 179 -75 169 -96 285 -100 633 -18 157 36 158 37 247 24 133 -19
162 -9 288 92 42 35 120 92 172 126 171 114 199 152 251 343 42 154 57 186
117 233 27 22 58 53 67 69 24 39 30 138 17 270 -6 61 -14 174 -18 251 -5 115
-18 241 -23 213z"/>
<path d="M4345 2245 c48 -74 128 -234 160 -320 17 -45 29 -105 35 -165 5 -60
22 -141 45 -218 33 -109 37 -132 32 -195 -3 -40 -16 -103 -29 -141 -21 -63
-29 -74 -83 -116 -73 -57 -95 -111 -77 -195 15 -75 -1 -95 -170 -212 l-98 -67
0 -62 c0 -35 4 -74 10 -88 11 -31 98 -143 115 -150 18 -6 38 10 83 66 20 26
67 85 103 130 68 85 204 302 245 393 26 57 50 186 59 325 4 52 11 129 16 170
23 189 8 384 -37 473 -43 85 -145 237 -194 291 -54 58 -145 112 -222 130 l-28
6 35 -55z"/>
<path d="M2927 2184 c-51 -71 -158 -169 -215 -198 -104 -53 -218 -70 -349 -51
-46 6 -53 5 -53 -10 0 -101 202 -132 382 -60 80 32 171 103 209 163 38 60 71
149 67 181 -3 24 -5 23 -41 -25z"/>
</g>
</svg>
