<svg width="800" height="600" xmlns="http://www.w3.org/2000/svg">
 <!-- Created with Method Draw - http://github.com/duopixel/Method-Draw/ -->
 <g>
  <title>background</title>
  <rect fill="#fff" id="canvas_background" height="602" width="802" y="-1" x="-1"/>
  <g display="none" overflow="visible" y="0" x="0" height="100%" width="100%" id="canvasGrid">
   <rect fill="url(#gridpattern)" stroke-width="0" y="0" x="0" height="100%" width="100%"/>
  </g>
 </g>
 <g>
  <title>Layer 1</title>
  <path stroke="#000" id="svg_2" d="m521.073557,309.999282c13.994117,0 25.352079,-11.350101 25.352079,-25.352081c0,-14.009852 -11.357962,-25.367804 -25.352079,-25.367804c-14.005935,0 -25.367791,11.357953 -25.367791,25.367804c0,14.00198 11.357941,25.352081 25.367791,25.352081zm71.102121,109.336521l-22.751265,-84.38123c-0.21215,-0.7661 -0.510769,-1.496839 -0.872165,-2.172588c-2.585132,-7.904602 -10.006486,-13.628754 -18.771485,-13.628754l-57.583358,0c-9.138225,0 -16.811079,6.215251 -19.070062,14.650228c-0.153224,0.3693 -0.278938,0.758249 -0.392864,1.158965l-22.346624,84.377304c-1.489009,5.53163 1.795415,11.216505 7.334896,12.705503c5.531671,1.481126 11.216567,-1.803288 12.705576,-7.334918l17.549617,-66.281587l7.311363,0l-31.850224,119.924437l30.011616,0l0,82.794007c0,6.368475 5.154468,11.526879 11.530804,11.526879c6.360613,0 11.526878,-5.1545 11.526878,-11.526879l0,-82.794007l9.169662,0l0,82.794007c0,6.368475 5.162329,11.526879 11.538686,11.526879c6.360602,0 11.526878,-5.1545 11.526878,-11.526879l0,-82.794007l29.995841,0l-31.968065,-119.924437l7.503886,0l17.871747,66.281587c1.488988,5.53163 7.173894,8.816044 12.705513,7.334918c5.519874,-1.488988 8.804287,-7.177778 7.323161,-12.709429l-0.00001,0z" stroke-width="1.5" fill="#ff56aa"/>
  <path id="svg_3" d="m260.292267,283.771465c0,-13.546959 10.97306,-24.520008 24.520008,-24.520008c13.546969,0 24.519988,10.973049 24.519988,24.520008c0,13.546959 -10.973019,24.520008 -24.519988,24.520008c-13.546969,0 -24.520008,-10.973049 -24.520008,-24.520008zm82.440453,69.40728l0,-12.383309c0,-13.029057 -10.556249,-23.592856 -23.592856,-23.592856l-68.731137,0c-13.029057,0 -23.592846,10.563799 -23.592846,23.592856l0,12.383309c-0.022783,0.281078 -0.037995,0.569788 -0.037995,0.862268l0,71.325584c0,5.5421 4.489926,10.031986 10.032016,10.031986c5.534509,0 10.035786,-4.489906 10.035786,-10.031986l0,-70.269569l6.727243,0l0,80.309145l0.049377,0l0,113.474405c0,7.376781 5.990352,13.370904 13.374735,13.370904c7.388193,0 13.374735,-5.986521 13.374735,-13.370904l0,-113.474405l8.82406,0l0,113.474405c0,7.376781 5.994061,13.370904 13.374714,13.370904c7.388163,0 13.374704,-5.986521 13.374704,-13.370904l0,-113.474405l0.041786,0l0,-80.309145l6.727253,0l0,70.265748c0,5.54211 4.501267,10.035797 10.035797,10.035797c5.542161,0 10.032016,-4.493686 10.032016,-10.035797l0,-71.325563c-0.00377,-0.296281 -0.026594,-0.577389 -0.049387,-0.858478l0,0.00001z" stroke-opacity="null" stroke-width="1.5" stroke="#000" fill="#0fffff"/>
 </g>
</svg>