<svg width="580" height="400" xmlns="http://www.w3.org/2000/svg">
 <!-- Created with Method Draw - http://github.com/duopixel/Method-Draw/ -->
 <g>
  <title>background</title>
  <rect fill="#fff" id="canvas_background" height="402" width="582" y="-1" x="-1"/>
 </g>
 <g>
  <title>Layer 1</title>
  <path id="svg_1" d="m45.5,233.453125l447.5,-0.453125c0.5,0.453125 0.5,142.453125 0.5,142.453125" stroke-opacity="null" stroke-width="1.5" stroke="#000" fill="#a3e85a"/>
  <path id="svg_2" d="m491.5,232.453125c2,143 -444,1 -444,1c0,0 1,138 1,138" stroke-opacity="null" stroke-width="1.5" stroke="#000" fill="#e4eade"/>
  <path stroke="#000" id="svg_3" d="m405.540409,163.006539l-8.126471,0c0,0 -6.320601,-0.369151 -8.126471,4.42971c-3.216756,3.460653 -9.226926,1.937968 -10.835274,3.322258c-1.777686,0 -5.869134,0.645989 -5.417667,2.214806c0.451467,1.568866 1.805929,1.845704 1.354402,2.214855c-0.451467,0.369151 -1.693017,7.936543 10.158103,7.751968c0,0 1.24155,2.214806 6.772069,0c0,0 1.241491,-0.830565 3.385975,0.553677c2.144544,1.38429 6.433453,2.39943 7.449299,2.214855c1.015787,-0.184575 7.44924,8.767059 7.44924,21.594677c0,12.827667 8.690849,21.686989 11.512505,22.148452c0,0 6.856678,17.857137 7.110625,33.776306c0,0 1.693017,6.736828 -5.756223,6.644516c-4.020901,2.733958 -5.798587,4.602728 -3.386034,4.42971c0,0 0.931177,1.245798 2.708804,1.107403c0.769791,-0.224783 -6.221811,4.083625 -3.386034,3.875984c0,0 1.241609,2.953107 6.094838,1.107403c0,0 7.449299,0.553726 8.126471,-3.322258c0.677231,-3.875984 1.015846,-10.174415 4.063265,-9.413097c0,0 0.451408,-30.915462 4.063206,-33.22258c0,0 17.941152,1.210932 38.600721,-8.859371c5.869134,-2.860844 11.851061,-7.105979 12.866848,2.768532c1.015846,9.874511 19.187508,18.087893 21.670608,23.809532c2.4831,5.721688 3.837502,3.691409 3.385975,17.165016c0,0 -4.28891,-0.830565 -7.44924,2.214855c-2.031632,1.661129 0.677231,1.661129 0.677231,1.661129c0,0 -1.580165,1.291978 3.386034,1.107452c0,0 0.677171,0.622875 4.063206,0c0,0 5.643371,0.276839 4.740436,-3.322258c0,0 0.338615,-20.487323 2.031632,-19.379871c1.693017,1.107403 10.383807,7.567344 10.158044,21.594677c0,0 -3.837502,0.461414 -4.063206,3.875984c0,0 -1.918721,1.753392 0.677171,2.214855c0,0 3.639981,0.761318 4.740436,0c0,0 4.627644,1.291978 4.740436,-3.322307c0.112852,-4.614236 -3.72459,-20.625669 -2.031573,-24.363209c0,0 -14.559924,-6.921403 -16.930172,-28.239242c0,0 6.772069,18.087893 28.442677,14.950161c0,0 1.580165,-0.553677 -0.677231,-1.107403c-2.257396,-0.553726 -20.090443,1.38429 -24.379412,-16.61129c-3.132088,-12.873798 -0.76184,-14.25804 -10.835274,-19.379871c-13.544078,-10.589698 -47.29151,0.092263 -57.562406,-3.322258c-9.480872,-3.875984 -9.819488,-3.945181 -20.316147,-6.644516c-10.750665,-4.637351 -8.916494,-9.966774 -16.930112,-17.165016c-6.137202,-6.748337 -6.20769,-5.998527 -6.772069,-6.644516c-0.564379,-0.646038 -0.112852,-3.691409 -7.44924,-4.42971z" stroke-opacity="null" stroke-width="1.5" fill="#a3e85a"/>
 </g>
</svg>