<?xml version="1.0" standalone="no"?>
<!DOCTYPE svg PUBLIC "-//W3C//DTD SVG 20010904//EN"
 "http://www.w3.org/TR/2001/REC-SVG-20010904/DTD/svg10.dtd">
<svg version="1.0" xmlns="http://www.w3.org/2000/svg"
 width="500.000000pt" height="500.000000pt" viewBox="0 0 500.000000 500.000000"
 preserveAspectRatio="xMidYMid meet">

<g transform="translate(0.000000,500.000000) scale(0.100000,-0.100000)"
fill="purple" stroke="none">
<path d="M155 4155 c-16 -9 -38 -25 -47 -36 -24 -29 -23 -96 2 -134 11 -16 20
-44 20 -60 0 -19 12 -45 33 -70 30 -37 32 -43 33 -126 1 -72 4 -91 22 -113 11
-15 26 -44 33 -64 6 -20 29 -77 51 -127 31 -69 42 -108 48 -172 6 -72 12 -91
49 -151 26 -43 45 -89 50 -123 24 -146 49 -188 139 -234 37 -18 94 -47 127
-64 62 -32 105 -38 225 -32 45 3 66 -2 110 -24 31 -16 82 -31 122 -36 79 -10
103 -22 124 -67 19 -40 12 -81 -20 -111 -27 -25 -35 -26 -131 -16 -87 9 -143
-5 -191 -47 -46 -41 -64 -77 -64 -132 0 -58 13 -91 55 -138 19 -21 35 -44 35
-51 0 -7 -23 -45 -50 -84 -38 -54 -54 -88 -66 -142 -9 -39 -13 -82 -10 -96 3
-13 26 -47 51 -75 51 -58 56 -89 31 -202 -8 -35 -13 -74 -11 -88 2 -14 4 -31
4 -38 1 -7 21 -35 46 -61 25 -26 45 -57 45 -68 0 -39 -102 -150 -228 -247 -48
-36 -62 -53 -60 -70 2 -14 11 -22 30 -24 21 -3 40 9 90 55 63 59 250 176 301
188 21 6 50 -4 130 -44 56 -28 126 -57 156 -64 61 -16 83 -38 79 -82 -2 -25 1
-31 21 -33 44 -7 70 7 91 48 26 51 27 113 5 227 -15 80 -16 96 -4 134 22 68
51 82 178 89 151 8 171 28 171 175 0 48 4 95 10 105 6 11 34 26 66 35 50 14
57 20 74 58 10 23 21 69 25 102 13 119 35 176 87 227 47 46 73 91 63 108 -13
21 -7 108 10 133 19 29 52 44 66 30 5 -5 3 -51 -7 -114 -10 -63 -14 -136 -11
-186 4 -70 10 -92 39 -145 37 -67 73 -92 106 -72 32 20 81 104 93 162 11 55 9
103 -18 325 -4 32 -2 37 15 37 11 0 32 -14 46 -31 24 -28 26 -37 24 -109 l-3
-78 57 -59 c61 -65 72 -92 88 -213 18 -136 32 -158 113 -180 26 -7 52 -20 57
-29 4 -9 8 -57 8 -107 0 -147 26 -174 168 -174 174 0 213 -60 169 -265 -19
-93 -14 -149 18 -197 19 -27 30 -34 65 -36 41 -3 42 -2 40 25 -3 52 10 72 55
83 66 16 147 50 202 83 72 45 110 41 218 -22 116 -67 164 -101 212 -150 27
-28 47 -41 66 -41 61 0 48 44 -29 98 -67 47 -193 174 -214 217 -19 38 -14 52
35 95 36 32 41 42 45 92 3 35 -2 84 -13 126 -20 82 -9 142 30 168 82 54 74
196 -19 319 -25 33 -46 67 -46 76 0 9 18 38 40 65 135 164 -32 367 -250 304
-45 -13 -86 3 -105 41 -45 85 19 159 136 159 21 0 61 13 93 30 54 28 62 29
169 27 100 -1 117 1 157 22 25 13 79 41 120 62 116 59 138 89 165 233 8 45 25
95 38 115 46 70 59 104 67 186 6 60 17 99 38 142 17 32 38 84 46 114 9 31 28
71 41 89 22 29 25 44 25 114 0 77 2 84 35 130 21 30 35 61 35 79 0 17 7 38 15
47 23 25 30 84 15 121 -32 76 -153 87 -399 39 -136 -27 -170 -30 -310 -28
l-156 2 -105 -40 c-96 -38 -145 -66 -375 -219 -24 -16 -95 -74 -157 -127 -350
-301 -386 -342 -419 -473 -11 -44 -34 -101 -50 -126 -32 -50 -118 -135 -189
-186 -25 -18 -73 -56 -108 -84 -35 -28 -66 -48 -69 -46 -3 3 1 21 8 40 11 30
10 39 -4 61 -22 33 -21 50 3 129 27 87 83 157 153 192 43 20 63 25 91 20 33
-7 36 -5 36 15 0 22 -3 22 -55 17 -130 -13 -234 -125 -266 -286 -13 -67 -22
-65 -33 8 -23 149 -155 281 -283 281 -27 0 -33 -4 -33 -21 0 -19 4 -20 35 -15
46 9 109 -19 160 -69 68 -69 123 -229 90 -265 -17 -19 -19 -57 -6 -80 6 -8 7
-18 5 -22 -6 -9 -61 29 -119 83 -22 20 -58 48 -80 62 -57 34 -141 122 -176
182 -16 28 -34 75 -40 105 -24 114 -68 170 -283 357 -93 81 -191 167 -216 189
-25 23 -90 70 -145 104 -55 34 -113 72 -130 85 -41 30 -100 60 -198 98 -81 31
-83 31 -244 29 -117 -2 -182 2 -235 13 -226 49 -357 58 -413 30z m251 -70 c17
-13 17 -14 2 -15 -21 0 -40 -33 -32 -53 7 -19 118 -68 123 -55 2 5 -7 20 -20
34 -20 22 -21 26 -8 39 13 13 17 13 34 1 16 -12 18 -18 9 -33 -16 -26 1 -57
42 -77 19 -9 36 -16 38 -16 7 0 -6 44 -17 57 -10 14 -3 43 12 43 5 0 17 -7 26
-16 14 -15 14 -18 1 -33 -22 -24 -9 -57 30 -80 34 -20 34 -20 34 -1 0 11 -6
29 -12 40 -11 17 -10 22 2 30 19 12 31 8 44 -14 9 -13 7 -20 -8 -31 -27 -21
-13 -59 31 -87 21 -12 68 -49 105 -81 186 -160 314 -407 211 -407 -31 0 -75
26 -93 53 -7 11 -35 65 -62 119 -88 175 -243 360 -293 350 -16 -3 -25 -11 -25
-23 0 -23 -32 -26 -50 -4 -16 20 -2 38 26 32 39 -7 51 9 23 32 -26 23 -96 26
-92 4 4 -21 -22 -34 -42 -19 -26 19 -13 50 18 42 12 -3 29 -1 37 4 11 7 4 14
-30 29 -56 26 -72 26 -101 2 -19 -16 -22 -22 -11 -32 18 -19 15 -29 -8 -29
-11 0 -39 18 -61 40 -39 37 -41 42 -26 58 11 11 13 22 7 33 -6 11 -5 23 5 35
12 16 17 17 34 6 17 -10 21 -10 21 1 0 35 43 47 76 22z m4223 -6 c11 -12 24
-18 29 -15 6 3 18 3 27 0 12 -5 15 -14 11 -35 -3 -16 -1 -31 4 -34 18 -11 10
-44 -12 -56 -13 -7 -29 -20 -36 -31 -7 -10 -22 -18 -32 -18 -16 0 -18 5 -14
29 9 42 -23 58 -80 41 -53 -16 -72 -30 -54 -41 7 -5 23 -6 35 -3 31 8 44 -23
18 -42 -20 -15 -45 -3 -45 22 0 21 -61 17 -90 -6 -20 -16 -22 -22 -11 -29 8
-5 20 -7 28 -4 7 3 20 2 28 -1 13 -4 14 -10 5 -26 -14 -26 -50 -27 -50 -1 0
28 -38 33 -72 9 -68 -48 -184 -209 -257 -356 -58 -115 -85 -144 -138 -146 -36
-1 -38 1 -41 33 -4 42 10 78 66 166 54 85 152 187 249 262 78 59 93 81 69 99
-20 14 -20 38 -1 54 25 20 37 2 29 -46 l-6 -44 31 17 c37 22 58 68 35 81 -18
10 -9 38 13 47 29 10 37 -11 19 -48 -22 -48 -21 -49 21 -32 48 20 48 20 48 68
0 36 3 42 23 45 17 3 22 -2 22 -18 0 -11 -7 -23 -15 -26 -18 -7 -20 -34 -2
-34 6 1 32 11 57 23 35 17 46 28 48 50 3 22 -1 30 -17 34 -17 4 -19 8 -10 19
17 20 45 17 68 -7z m-3602 -37 c131 -50 273 -154 273 -200 0 -15 -16 -34 -47
-56 -27 -19 -54 -45 -62 -58 -27 -43 -58 -113 -66 -145 -3 -18 -11 -33 -17
-33 -7 0 -8 38 -3 118 9 139 8 178 -7 206 -28 53 -79 62 -98 16 -26 -63 -7
-220 32 -267 6 -7 8 -16 4 -20 -9 -10 -81 63 -132 133 -55 77 -92 157 -100
215 -6 55 19 111 56 119 34 8 104 -4 167 -28z m3110 15 c45 -46 29 -157 -38
-268 -42 -70 -154 -197 -164 -187 -4 3 4 26 17 50 19 36 23 58 23 140 0 78 -3
101 -17 114 -22 22 -63 11 -85 -23 -19 -28 -22 -131 -8 -248 3 -28 2 -62 -3
-75 -8 -21 -10 -19 -21 24 -6 27 -23 70 -36 95 -23 47 -35 60 -107 121 -25 21
-35 37 -31 48 11 30 56 74 123 117 142 92 305 135 347 92z m-3651 -308 c118
-36 225 -101 314 -190 45 -45 89 -109 75 -109 -3 0 -40 24 -83 54 -110 76
-221 109 -236 70 -16 -43 43 -84 181 -128 118 -37 153 -53 153 -70 0 -23 -39
-43 -100 -50 -65 -9 -80 -19 -80 -57 0 -42 34 -72 76 -67 19 2 34 3 34 2 0 -1
-7 -18 -15 -37 -21 -52 -19 -90 8 -114 15 -15 28 -19 42 -13 31 12 41 29 60
95 22 77 49 122 86 140 35 18 38 6 9 -35 -36 -50 -41 -83 -43 -250 -2 -174 -8
-201 -56 -244 -26 -24 -91 -17 -134 15 -24 18 -35 20 -61 12 -61 -18 -133 13
-169 75 -24 41 -36 125 -27 190 7 53 6 54 -28 77 -96 65 -96 172 1 221 18 10
65 18 111 21 140 7 166 12 166 33 0 41 -92 41 -212 -1 -52 -18 -103 -29 -125
-27 -35 3 -36 5 -63 81 -15 43 -39 91 -53 105 -43 45 -72 155 -49 188 26 39
116 44 218 13z m4198 0 c16 -13 26 -30 26 -47 0 -40 -34 -128 -63 -162 -25
-29 -67 -127 -67 -156 0 -8 -10 -19 -23 -25 -19 -9 -44 -4 -130 25 -115 38
-190 46 -223 22 -36 -27 -2 -39 124 -47 80 -4 128 -12 150 -23 38 -20 72 -70
72 -107 0 -33 -37 -88 -76 -114 l-31 -20 4 -85 c8 -140 -32 -211 -134 -239
-21 -6 -44 -6 -62 0 -23 8 -36 5 -72 -15 -57 -33 -103 -34 -133 -1 -39 42 -49
97 -47 253 1 125 -1 148 -19 189 -11 26 -28 55 -36 64 -10 11 -12 19 -5 24 6
3 29 -11 51 -32 32 -30 44 -52 59 -107 12 -41 29 -79 44 -94 25 -24 27 -25 51
-8 35 22 42 58 22 109 -21 55 -21 54 18 49 27 -3 37 1 55 23 41 53 20 90 -57
100 -74 10 -97 20 -100 43 -4 26 21 39 154 80 119 37 168 67 172 105 7 63 -99
42 -225 -44 -48 -32 -89 -56 -91 -54 -10 9 53 88 108 136 159 139 405 220 484
158z m-3154 -36 c66 -32 96 -58 247 -210 176 -179 197 -209 173 -253 -13 -25
-67 -50 -107 -50 -34 0 -87 16 -224 68 -128 48 -219 70 -334 78 l-88 7 39 21
c34 18 57 21 182 22 82 1 148 6 154 12 16 16 5 54 -23 75 -19 13 -46 20 -90
22 -35 1 -67 3 -72 4 -4 0 -4 19 -1 40 5 34 3 40 -14 45 -56 18 -171 -48 -203
-117 l-20 -42 6 40 c15 92 94 219 158 252 80 41 110 39 217 -14z m2069 37 c85
-24 161 -110 200 -228 28 -82 26 -98 -5 -40 -28 55 -77 91 -147 110 -40 10
-49 10 -62 -3 -13 -12 -14 -21 -5 -44 6 -15 9 -30 6 -32 -2 -3 -33 -6 -69 -8
-63 -3 -104 -17 -119 -39 -12 -17 -9 -54 4 -62 6 -4 74 -7 152 -8 121 -1 146
-4 176 -21 l35 -20 -30 -2 c-131 -11 -224 -30 -325 -65 -244 -84 -264 -90
-304 -85 -44 6 -89 35 -94 61 -8 40 16 74 164 225 160 164 213 206 312 247 66
27 66 27 111 14z m-2174 -467 c141 -23 244 -70 340 -154 77 -68 116 -159 81
-188 -12 -10 -10 -22 17 -78 79 -170 22 -272 -145 -261 -52 4 -86 15 -157 49
l-90 44 -30 -27 c-109 -97 -293 -29 -366 137 -65 145 -72 301 -18 396 43 76
59 76 55 0 -7 -124 50 -231 124 -231 28 0 35 4 40 25 3 14 3 41 0 60 -9 46 -1
44 24 -5 49 -97 147 -162 207 -139 22 8 25 14 19 40 -8 40 -56 100 -120 152
-28 22 -42 37 -31 33 32 -13 105 -19 105 -10 0 37 -70 84 -190 129 -41 16 -79
33 -85 37 -14 13 125 7 220 -9z m2335 9 c0 -5 -18 -14 -40 -21 -112 -33 -230
-104 -230 -138 0 -12 8 -14 38 -10 20 3 46 8 57 13 11 4 -8 -18 -42 -50 -97
-89 -127 -152 -82 -176 48 -26 120 17 186 112 23 33 44 62 45 64 2 1 1 -21 -1
-49 -4 -57 12 -78 54 -69 64 12 122 137 112 239 -3 29 -2 53 3 53 15 0 59 -64
75 -109 19 -55 19 -112 -1 -209 -29 -144 -89 -244 -173 -287 -91 -46 -171 -41
-233 14 l-31 27 -61 -32 c-88 -47 -167 -67 -239 -62 -54 4 -63 8 -95 42 -33
37 -34 41 -30 101 3 45 13 80 34 123 30 57 30 59 13 81 -31 38 -1 99 85 179
97 89 218 142 371 161 95 12 185 13 185 3z m-1640 -378 c94 -17 189 -63 247
-120 37 -35 44 -47 38 -66 -18 -58 -17 -87 5 -117 19 -27 19 -30 3 -24 -46 17
-124 76 -164 124 -64 77 -118 129 -134 129 -22 0 -18 -19 15 -78 38 -65 130
-135 247 -189 46 -21 83 -42 83 -46 0 -4 -78 -7 -172 -6 -138 2 -180 -1 -209
-13 -37 -16 -56 -35 -45 -45 3 -4 63 -1 134 6 135 14 196 7 222 -24 11 -13 9
-20 -10 -40 -64 -68 -211 -79 -345 -26 -45 17 -93 32 -108 33 -32 3 -31 1 -12
38 28 55 134 117 216 127 l49 6 -58 61 c-59 63 -115 157 -126 212 -9 43 9 88
32 79 9 -3 51 -13 92 -21z m848 -29 c4 -64 -40 -153 -121 -240 l-59 -65 31 0
c70 0 194 -66 230 -124 l20 -31 -67 -23 c-190 -66 -250 -74 -336 -41 -76 28
-104 52 -90 76 23 38 78 46 221 32 73 -7 136 -10 139 -6 13 12 -18 37 -60 48
-23 7 -110 11 -203 10 -90 -1 -163 2 -163 6 1 5 47 30 103 57 80 39 116 64
169 116 42 42 70 79 76 101 18 68 -30 43 -111 -59 -59 -74 -98 -107 -166 -141
l-44 -23 22 35 c24 39 26 57 9 104 -12 32 -10 35 26 72 55 57 147 102 256 127
52 12 100 21 105 20 6 -2 11 -24 13 -51z m-1268 -352 c42 -24 70 -81 68 -138
0 -42 3 -52 28 -72 16 -13 25 -23 21 -23 -18 0 -54 24 -97 66 -51 49 -117 81
-175 86 -32 2 -40 -1 -43 -15 -8 -40 88 -106 184 -127 83 -19 94 -43 42 -91
-37 -34 -112 -59 -174 -59 -23 0 -77 7 -120 16 -90 19 -167 14 -221 -13 -81
-40 -40 -66 102 -67 55 0 129 6 165 13 126 27 154 -6 69 -83 -66 -59 -139 -94
-230 -110 -88 -15 -127 -34 -180 -87 -93 -93 -9 -77 166 30 38 24 86 46 107
48 33 5 38 3 43 -20 11 -44 -40 -121 -140 -211 -121 -109 -155 -145 -155 -162
0 -31 37 -10 108 61 41 41 77 73 81 70 4 -2 2 -37 -5 -77 -24 -134 -11 -284
24 -296 9 -3 10 3 1 25 -14 38 -14 156 1 229 18 88 77 250 117 324 67 125 188
268 303 361 84 67 152 110 166 105 16 -6 18 -22 4 -31 -18 -11 -11 -35 11 -35
11 0 43 10 70 21 57 25 117 22 158 -8 34 -26 42 -64 26 -121 -14 -46 -16 -48
-95 -81 -145 -61 -245 -51 -314 32 -32 38 -37 41 -63 32 -20 -7 -29 -18 -31
-37 -5 -43 24 -62 124 -82 105 -20 188 -55 204 -86 15 -28 8 -112 -13 -162
-15 -36 -17 -37 -49 -28 -18 6 -58 10 -89 10 -66 0 -146 22 -182 50 -14 11
-35 46 -47 78 -23 61 -45 92 -66 92 -47 0 -62 -109 -21 -154 12 -13 55 -36 95
-50 102 -36 129 -52 147 -86 18 -35 19 -75 4 -136 l-12 -46 -108 4 c-104 3
-109 4 -140 33 -17 17 -42 53 -55 81 -27 61 -48 73 -70 40 -21 -33 -10 -82 32
-148 67 -105 71 -121 78 -285 4 -87 3 -154 -3 -157 -25 -16 -231 78 -294 134
-37 34 -41 41 -41 86 0 36 12 75 42 144 45 101 48 115 32 125 -17 11 -38 -13
-77 -87 -40 -77 -83 -116 -137 -125 -32 -5 -36 -3 -42 21 -11 45 2 114 30 156
15 24 73 75 136 121 105 77 159 137 145 160 -11 16 -55 2 -98 -32 -53 -43 -98
-59 -161 -59 -66 0 -136 25 -136 49 0 37 59 138 103 177 67 60 127 75 275 73
130 -2 172 10 172 51 0 31 -40 34 -147 12 -135 -28 -179 -34 -219 -26 -57 10
-184 138 -184 185 0 25 125 86 195 94 75 10 155 -7 293 -61 79 -30 129 -44
162 -44 52 0 83 20 78 49 -3 13 -22 17 -113 21 -61 3 -120 11 -132 18 -44 24
-73 82 -73 142 0 97 -1 96 103 108 114 13 200 7 237 -15z m1783 15 c124 -13
127 -16 127 -111 0 -57 -31 -116 -73 -139 -12 -6 -71 -14 -132 -17 -98 -5
-110 -8 -113 -25 -3 -11 4 -26 14 -33 33 -24 105 -15 212 27 143 57 215 73
288 67 63 -5 149 -38 193 -74 l25 -20 -27 -46 c-35 -59 -110 -124 -158 -137
-40 -11 -98 -5 -249 26 -41 8 -85 12 -97 9 -32 -8 -29 -40 4 -62 22 -15 46
-17 148 -15 151 4 213 -15 285 -88 41 -40 90 -133 90 -169 0 -17 -58 -34 -130
-38 -65 -3 -80 -1 -112 19 -111 70 -130 80 -143 74 -43 -16 -3 -64 140 -171
98 -73 117 -93 141 -140 22 -46 26 -64 20 -102 -3 -26 -8 -48 -11 -51 -2 -2
-20 -1 -40 2 -49 10 -97 57 -143 141 -39 73 -72 97 -72 52 0 -13 18 -63 40
-110 50 -106 54 -169 15 -215 -40 -47 -293 -168 -312 -149 -3 3 -1 81 4 174
l9 168 49 74 c45 66 50 79 50 130 0 53 -2 56 -25 58 -22 2 -29 -6 -55 -60 -44
-91 -73 -107 -196 -107 l-98 0 -10 38 c-6 20 -11 59 -11 85 0 66 29 93 152
141 53 20 102 43 108 51 21 26 25 102 6 130 -32 49 -70 26 -96 -60 -15 -49
-54 -93 -100 -113 -19 -8 -78 -18 -130 -22 -52 -4 -102 -10 -110 -14 -12 -5
-20 5 -32 41 -53 151 -9 202 210 244 97 18 134 58 95 101 -25 28 -48 22 -82
-21 -65 -81 -174 -92 -314 -30 -67 30 -78 39 -92 72 -28 70 -12 117 51 143 48
20 85 17 145 -11 47 -21 56 -23 68 -10 13 13 12 17 -4 34 -16 19 -17 21 -1 27
41 16 284 -189 387 -326 96 -127 178 -318 209 -483 12 -67 10 -184 -5 -219 -4
-11 -3 -18 4 -18 15 0 41 95 41 151 0 25 -7 86 -15 134 -9 48 -13 90 -10 93 3
3 40 -29 83 -71 73 -73 112 -95 112 -63 0 7 -56 66 -125 131 -133 125 -179
186 -173 232 5 49 49 43 155 -21 104 -63 163 -89 190 -84 15 3 10 12 -27 51
-56 61 -80 74 -182 93 -101 19 -179 59 -243 124 -41 42 -46 51 -35 65 16 20
75 19 154 -1 102 -27 286 -8 273 29 -7 21 -77 49 -135 54 -36 3 -85 -1 -130
-11 -88 -20 -144 -20 -209 -1 -58 17 -113 63 -113 93 0 17 15 25 84 47 93 28
169 77 174 113 4 29 -23 32 -107 10 -29 -7 -62 -29 -100 -63 -52 -49 -90 -75
-107 -75 -4 0 5 11 20 25 22 20 26 33 26 77 0 83 36 130 115 149 44 10 50 10
168 -3z"/>
<path d="M1850 2194 c0 -22 52 -72 84 -80 46 -11 95 4 102 32 8 33 2 38 -50
35 -25 -1 -61 5 -82 14 -46 19 -54 19 -54 -1z"/>
<path d="M1665 2015 c9 -58 37 -107 75 -132 58 -40 108 -23 94 32 -5 22 -20
34 -69 56 -35 15 -73 41 -84 56 l-22 28 6 -40z"/>
<path d="M1515 1781 c-14 -24 53 -134 101 -166 18 -12 29 -13 44 -5 41 22 19
61 -62 109 -21 12 -46 34 -57 47 -11 14 -22 20 -26 15z"/>
<path d="M3060 2195 c-14 -8 -51 -14 -82 -15 -34 0 -58 -4 -58 -11 0 -45 62
-70 123 -50 38 13 61 35 71 69 9 26 -14 30 -54 7z"/>
<path d="M3284 2029 c-8 -17 -35 -36 -77 -57 -67 -31 -84 -54 -72 -92 8 -26
48 -26 91 0 40 25 77 97 72 142 l-3 33 -11 -26z"/>
<path d="M3433 1777 c-7 -15 -39 -43 -70 -64 -66 -41 -73 -49 -73 -80 0 -19 6
-23 28 -23 51 0 137 111 130 168 l-3 27 -12 -28z"/>
</g>
</svg>
