<svg width="800" height="600" xmlns="http://www.w3.org/2000/svg">
 <!-- Created with Method Draw - http://github.com/duopixel/Method-Draw/ -->
 <g>
  <title>background</title>
  <rect fill="#fff" id="canvas_background" height="602" width="802" y="-1" x="-1"/>
  <g display="none" overflow="visible" y="0" x="0" height="100%" width="100%" id="canvasGrid">
   <rect fill="url(#gridpattern)" stroke-width="0" y="0" x="0" height="100%" width="100%"/>
  </g>
 </g>
 <g>
  <title>Layer 1</title>
  <path stroke="#000" id="svg_4" d="m215.441925,573.946788c24.281859,-0.305082 -23.125088,-1.415835 -31.534119,-2.02807c-70.264776,-1.703874 -128.578413,-71.563293 -120.989147,-140.891391c1.536778,-69.374386 68.355466,-130.31644 137.902126,-123.335356c18.103003,-7.690037 43.801057,17.688437 55.040812,5.566734c28.869702,-50.927331 56.841405,-102.38668 86.874385,-152.636554c25.581974,-3.65139 56.059192,-6.473785 80.945159,0.447188c11.505146,18.123152 -9.412867,23.057097 -22.465822,20.259287c-14.568773,0 -29.137547,0 -43.706342,0c-10.546787,19.24183 -21.369388,38.330321 -32.146106,57.443756c61.211699,0 122.423466,0 183.635165,0c1.363086,-6.511337 16.824883,-20.540707 3.117255,-19.015726c-24.903887,-3.138801 -9.325537,-31.92115 9.116678,-23.733135c25.887191,0.951244 52.68947,-2.551894 77.799762,2.637851c13.413578,26.920408 -25.370954,21.145107 -41.996502,21.430445c-12.306067,-4.016561 -14.856317,8.285499 -19.728709,16.703287c-19.754938,20.235603 -7.476,41.562823 5.801236,61.289258c4.870096,8.973964 8.339531,21.428801 20.190463,13.043702c24.166905,-5.31044 50.513328,-5.503043 74.560731,0.706364c50.249401,14.928856 90.539103,61.518357 93.912225,114.294144c3.043748,32.416922 -3.886297,65.831106 -24.064153,91.982404c-23.403334,33.521124 -61.383973,51.876076 -101.340203,55.599465m-31.326453,0.327213c-36.426886,-9.347825 -70.011588,-31.095194 -89.482585,-63.927604c-12.742178,-16.410948 -14.398683,-41.819951 -21.171381,-58.282072c-17.862647,-0.233714 -35.725318,-0.46745 -53.58801,-0.701141c-36.178719,-58.200776 -68.067157,-119.069233 -102.965842,-178.081353c-6.802708,20.202576 -45.475956,47.688345 -24.122373,66.285161c53.590374,44.966383 60.727004,132.798024 14.890312,185.743068c-21.005883,23.547556 -50.145546,39.774658 -80.100066,48.947395m2.300777,-32.019152c57.804334,-12.587779 94.742481,-79.237818 74.748629,-134.823617c-6.178947,-18.103903 -23.180291,-47.023203 -38.19641,-47.319572c-16.006694,27.636385 -30.406593,56.262288 -47.949547,82.972621c-38.522699,6.776075 -3.229035,-40.12918 4.922125,-56.067838c8.73917,-19.446659 40.474583,-50.904817 0.496267,-50.439033c-28.066125,-2.792924 -57.892745,-0.092036 -80.597144,18.536592c-48.724938,32.243815 -57.947025,105.99239 -21.047939,150.449156c24.979646,32.387452 68.116799,46.156902 107.623996,36.691714l0.000023,-0.000023zm404.434874,-0.008015c49.338006,-11.592183 84.842285,-62.301087 78.456056,-112.628791c-3.37758,-55.93064 -59.15632,-101.164282 -114.610122,-93.646745c-41.553998,-3.932765 -1.770874,34.215736 4.168775,52.761671c5.650688,19.692418 36.779066,43.879247 19.400191,63.083479c-38.97896,1.632934 -78.913622,-1.146708 -117.785552,2.783626c6.981691,51.544789 55.762058,94.183401 108.399544,90.239064c7.386959,-0.060246 14.809511,-0.685179 21.971131,-2.592306l-0.000023,0zm-159.237316,-115.193449c4.694895,-40.330046 27.555381,-77.015568 60.895361,-99.970048c1.96976,-9.892947 -18.21789,-55.458462 -25.609824,-23.691282c-22.816292,41.471935 -45.753211,82.888285 -67.870365,124.736197c10.595394,0.256272 22.472757,2.10635 32.584828,-1.074867zm119.09805,-2.000243c-13.152465,-24.725647 -26.596977,-49.302907 -40.344184,-73.702828c-27.577332,14.542635 -45.719711,45.318721 -50.008303,76.037037c30.110944,-0.641863 60.727004,1.57334 90.430857,-1.604116l-0.078257,-0.730116l0,0l-0.000113,0.000023zm-128.991988,-89.18509c12.971659,-23.941138 26.189504,-47.756133 38.760511,-71.90989c-54.662561,-1.225415 -109.44915,-1.493845 -164.093251,0.258996c28.06761,48.238577 53.425169,98.345692 84.114375,144.888815c14.839297,-22.825387 27.44243,-49.104202 41.218365,-73.237899l0,-0.000023z" stroke-opacity="null" stroke-width="1.5" fill="#999999"/>
 </g>
</svg>