<svg xmlns="http://www.w3.org/2000/svg" xmlns:xlink="http://www.w3.org/1999/xlink" xmlns:fi="http://pattern.flaticon.com/" x="0" y="0" width="700" height="350" viewBox="0 0 700 350"><rect x="0px" y="0px" width="100%" height="100%" opacity="1" fill="#ffffff"/><defs><g transform="matrix(0.1171872690320015 0 0 0.1171872690320015 194 212)" id="L1_0"><path d="M333.341,131.876c0,0-30.664,8.293-41.262,41.261l46.783,46.783  c32.969-10.598,41.261-41.261,41.261-41.261l-10.194-36.588L333.341,131.876z" fill="#bdbfb4"/><path d="M365.772,164.307c0,0-8.292,30.664-41.262,41.262l14.352,14.352  c32.969-10.598,41.262-41.262,41.262-41.262l-10.195-36.588l-11.224-3.128L365.772,164.307z" fill="#a4a69c"/><path d="M502.311,9.689L502.311,9.689c-12.919-12.919-33.865-12.919-46.783,0L333.341,131.876l46.783,46.783  L502.311,56.474C515.23,43.555,515.23,22.609,502.311,9.689z" fill="#feea61"/><path d="M487.959,42.122L365.772,164.307l14.352,14.352L502.311,56.474c12.919-12.919,12.918-33.865,0-46.783  c-2.504-2.504-5.312-4.517-8.303-6.05C500.386,16.077,498.374,31.706,487.959,42.122z" fill="#fec300"/><g><path d="M398.348,124.233c-1.948,0-3.896-0.743-5.383-2.23l-6.381-6.381c-2.973-2.973-2.973-7.791,0-10.764   c2.974-2.973,7.792-2.973,10.765,0l6.381,6.381c2.973,2.973,2.973,7.791,0,10.764C402.244,123.489,400.296,124.233,398.348,124.233   z" fill="#3b484a"/><path d="M468.869,53.712c-1.948,0-3.896-0.743-5.383-2.23l-6.381-6.381c-2.973-2.973-2.973-7.791,0-10.764   c2.974-2.973,7.792-2.973,10.765,0l6.381,6.381c2.973,2.973,2.973,7.791,0,10.764C472.766,52.968,470.817,53.712,468.869,53.712z" fill="#3b484a"/><path d="M425.49,97.265c-0.513,0-1.025-0.017-1.539-0.052c-4.194-0.282-7.366-3.91-7.084-8.105   c0.282-4.194,3.91-7.365,8.104-7.085c2.4,0.162,4.823-0.801,6.662-2.641c1.838-1.838,2.8-4.267,2.64-6.661   c-0.281-4.194,2.891-7.823,7.085-8.104c4.18-0.284,7.823,2.89,8.104,7.085c0.455,6.777-2.12,13.5-7.064,18.444   C437.826,94.72,431.736,97.265,425.49,97.265z" fill="#3b484a"/></g><path d="M344.245,214.539l-46.784-46.784c-1.886-1.886-4.621-2.647-7.21-2.007  c-107.808,26.662-186.9,64.914-235.082,113.693C18.517,316.549-0.044,359.068,0,405.815c0.026,28.401,11.063,55.067,31.074,75.085  c0.004,0.004,0.008,0.009,0.012,0.013s0.009,0.008,0.013,0.012c0.048,0.048,0.097,0.094,0.145,0.142  c0.005,0.005,0.01,0.01,0.015,0.015c0.001,0.001,0.003,0.003,0.004,0.004c0.006,0.006,0.013,0.012,0.019,0.018  c19.998,19.896,46.585,30.869,74.902,30.896h0.159c0.006,0,0.005,0,0.011,0c46.718,0,89.215-18.592,126.294-55.255  c48.735-48.188,86.956-127.252,113.601-234.996C346.892,219.16,346.13,216.425,344.245,214.539z M62.783,375.6  c19.417-29.293,50.314-60.3,91.83-92.16c61.142-46.919,127.668-81.888,145.869-91.135l4.224,4.224L40.244,460.992  C34.938,434.884,42.483,406.224,62.783,375.6z M51.008,471.757L315.47,207.294l4.224,4.224  c-9.248,18.202-44.215,84.727-91.134,145.868c-31.861,41.517-62.867,72.414-92.16,91.831  C105.776,469.518,77.116,477.063,51.008,471.757z M66,290.14c45.08-45.642,119.236-81.863,220.456-107.728  c-25.18,13.143-85.22,46.089-140.944,88.824c-42.9,32.902-74.987,65.159-95.366,95.873c-17.63,26.573-26.577,52.116-26.811,76.323  c-5.289-11.659-8.101-24.42-8.114-37.631C15.183,363.207,32.267,324.293,66,290.14z M221.946,445.92  c-34.13,33.747-73.02,50.859-115.59,50.858c-0.003,0-0.007,0-0.01,0h-0.147c-13.214-0.012-25.978-2.825-37.637-8.117  c24.207-0.231,49.756-9.176,76.329-26.808c30.715-20.378,62.971-52.465,95.873-95.366c42.735-55.722,75.682-115.762,88.824-140.943  C303.739,326.705,267.546,400.832,221.946,445.92z" fill="#d7d9cc"/></g><g transform="matrix(0.11718704551458359 0 0 0.11718704551458359 31 315)" id="L1_1"><g><path d="M16.462,363.427C13.069,402.492,26.385,487.595,256,487.595s242.931-85.103,239.538-124.168   l-66.859-32.354H83.322L16.462,363.427z" fill="#fa9eb0"/><path d="M428.678,180.929H83.322c-41.462,0-75.072,33.612-75.072,75.072l0,0   c0,41.462,33.612,75.072,75.072,75.072h345.357c41.462,0,75.072-33.612,75.072-75.072l0,0   C503.751,214.539,470.14,180.929,428.678,180.929z" fill="#fa9eb0"/></g><path d="M49.456,256.001L49.456,256.001c0-41.462,33.612-75.073,75.072-75.073H83.321  c-41.462,0-75.072,33.611-75.072,75.073l0,0c0,41.462,33.612,75.073,75.072,75.073h41.207  C83.068,331.074,49.456,297.463,49.456,256.001z" fill="#ed6883"/><path d="M16.462,148.575C13.069,109.509,26.386,24.406,256,24.406s242.931,85.103,239.538,124.168  l-66.859,32.354H83.322L16.462,148.575z" fill="#fa9eb0"/><g><path d="M276.604,24.645c-6.667-0.158-13.531-0.239-20.604-0.239c-229.614,0-242.931,85.103-239.538,124.169   l66.859,32.354h41.207L57.67,148.575C54.38,110.713,66.791,29.605,276.604,24.645z" fill="#ed6883"/><path d="M276.604,487.357c-6.667,0.158-13.531,0.239-20.604,0.239   c-229.614,0-242.931-85.103-239.538-124.169l66.859-32.354h41.207L57.67,363.427C54.38,401.29,66.791,482.397,276.604,487.357z" fill="#ed6883"/></g><g><path d="M458.677,136.13c-16.229,0-30.755,6.1-40.536,15.71c-9.781-9.611-24.306-15.71-40.536-15.71   s-30.755,6.1-40.536,15.71c-9.781-9.611-24.306-15.71-40.536-15.71s-30.755,6.1-40.536,15.71   c-9.78-9.611-24.306-15.71-40.536-15.71s-30.755,6.1-40.536,15.71c-9.781-9.611-24.306-15.71-40.536-15.71   s-30.755,6.1-40.536,15.71c-9.781-9.611-24.306-15.71-40.536-15.71C23.873,136.13,0,156.187,0,180.929s23.873,44.798,53.323,44.798   c16.229,0,30.755-6.1,40.536-15.71c9.781,9.611,24.306,15.71,40.536,15.71s30.755-6.1,40.536-15.71   c9.781,9.611,24.306,15.71,40.536,15.71s30.755-6.1,40.536-15.71c9.78,9.611,24.306,15.71,40.536,15.71   c16.229,0,30.755-6.1,40.536-15.71c9.781,9.611,24.306,15.71,40.536,15.71s30.755-6.1,40.536-15.71   c9.781,9.611,24.306,15.71,40.536,15.71c29.45,0,53.323-20.057,53.323-44.798S488.127,136.13,458.677,136.13z" fill="#fa5a79"/><path d="M458.677,375.872c-16.229,0-30.755-6.1-40.536-15.71c-9.781,9.611-24.306,15.71-40.536,15.71   s-30.755-6.1-40.536-15.71c-9.781,9.611-24.306,15.71-40.536,15.71s-30.755-6.1-40.536-15.71   c-9.78,9.611-24.306,15.71-40.536,15.71s-30.755-6.1-40.536-15.71c-9.781,9.611-24.306,15.71-40.536,15.71   s-30.755-6.1-40.536-15.71c-9.781,9.611-24.306,15.71-40.536,15.71C23.873,375.872,0,355.815,0,331.073   s23.873-44.798,53.323-44.798c16.229,0,30.755,6.1,40.536,15.71c9.781-9.611,24.306-15.71,40.536-15.71s30.755,6.1,40.536,15.71   c9.781-9.611,24.306-15.71,40.536-15.71s30.755,6.1,40.536,15.71c9.78-9.611,24.306-15.71,40.536-15.71   c16.229,0,30.755,6.1,40.536,15.71c9.781-9.611,24.306-15.71,40.536-15.71s30.755,6.1,40.536,15.71   c9.781-9.611,24.306-15.71,40.536-15.71c29.45,0,53.323,20.057,53.323,44.798S488.127,375.872,458.677,375.872z" fill="#fa5a79"/></g><g><path d="M172.078,91.212c-4.268,0-7.726-3.459-7.726-7.726V68.298c0-4.267,3.458-7.726,7.726-7.726   s7.726,3.459,7.726,7.726v15.188C179.805,87.753,176.346,91.212,172.078,91.212z" fill="#3b484a"/><path d="M339.922,91.212c-4.268,0-7.726-3.459-7.726-7.726V68.298c0-4.267,3.458-7.726,7.726-7.726   c4.268,0,7.726,3.459,7.726,7.726v15.188C347.648,87.753,344.19,91.212,339.922,91.212z" fill="#3b484a"/><path d="M256,99.32c-10.302,0-19.972-4.303-26.53-11.806c-2.809-3.213-2.481-8.094,0.732-10.902   c3.211-2.807,8.092-2.481,10.901,0.732c3.624,4.145,9.053,6.523,14.896,6.523c5.843,0,11.272-2.378,14.896-6.523   c2.808-3.213,7.688-3.541,10.902-0.732c3.212,2.808,3.541,7.689,0.731,10.902C275.972,95.017,266.302,99.32,256,99.32z" fill="#3b484a"/></g></g></defs><g fi:class="KUsePattern"><pattern id="pattern_L1_0" width="350" height="350" patternUnits="userSpaceOnUse"><use xlink:href="#L1_0" x="-350" y="-350"/><use xlink:href="#L1_0" x="0" y="-350"/><use xlink:href="#L1_0" x="350" y="-350"/><use xlink:href="#L1_0" x="-350" y="0"/><use xlink:href="#L1_0" x="0" y="0"/><use xlink:href="#L1_0" x="350" y="0"/><use xlink:href="#L1_0" x="-350" y="350"/><use xlink:href="#L1_0" x="0" y="350"/><use xlink:href="#L1_0" x="350" y="350"/></pattern><rect x="0" y="0" width="100%" height="100%" fill="url(#pattern_L1_0)"/></g><g fi:class="KUsePattern"><pattern id="pattern_L1_1" width="350" height="350" patternUnits="userSpaceOnUse"><use xlink:href="#L1_1" x="-350" y="-350"/><use xlink:href="#L1_1" x="0" y="-350"/><use xlink:href="#L1_1" x="350" y="-350"/><use xlink:href="#L1_1" x="-350" y="0"/><use xlink:href="#L1_1" x="0" y="0"/><use xlink:href="#L1_1" x="350" y="0"/><use xlink:href="#L1_1" x="-350" y="350"/><use xlink:href="#L1_1" x="0" y="350"/><use xlink:href="#L1_1" x="350" y="350"/></pattern><rect x="0" y="0" width="100%" height="100%" fill="url(#pattern_L1_1)"/></g></svg>